<?xml version="1.0" encoding="UTF-8" standalone="no"?>
<!-- Created with Inkscape (http://www.inkscape.org/) -->

<svg
   xmlns:dc="http://purl.org/dc/elements/1.1/"
   xmlns:cc="http://creativecommons.org/ns#"
   xmlns:rdf="http://www.w3.org/1999/02/22-rdf-syntax-ns#"
   xmlns:svg="http://www.w3.org/2000/svg"
   xmlns="http://www.w3.org/2000/svg"
   xmlns:sodipodi="http://sodipodi.sourceforge.net/DTD/sodipodi-0.dtd"
   xmlns:inkscape="http://www.inkscape.org/namespaces/inkscape"
   width="210mm"
   height="297mm"
   viewBox="0 0 210 297"
   version="1.1"
   id="svg8"
   inkscape:version="0.92.4 (5da689c313, 2019-01-14)"
   sodipodi:docname="LogoDisFruta.svg">
  <defs
     id="defs2" />
  <sodipodi:namedview
     id="base"
     pagecolor="#ffffff"
     bordercolor="#666666"
     borderopacity="1.0"
     inkscape:pageopacity="0.0"
     inkscape:pageshadow="2"
     inkscape:zoom="0.98994949"
     inkscape:cx="222.52447"
     inkscape:cy="1016.1688"
     inkscape:document-units="mm"
     inkscape:current-layer="layer1"
     showgrid="false"
     inkscape:window-width="1920"
     inkscape:window-height="1017"
     inkscape:window-x="1912"
     inkscape:window-y="-8"
     inkscape:window-maximized="1">
    <inkscape:grid
       type="xygrid"
       id="grid837" />
  </sodipodi:namedview>
  <metadata
     id="metadata5">
    <rdf:RDF>
      <cc:Work
         rdf:about="">
        <dc:format>image/svg+xml</dc:format>
        <dc:type
           rdf:resource="http://purl.org/dc/dcmitype/StillImage" />
        <dc:title />
      </cc:Work>
    </rdf:RDF>
  </metadata>
  <g
     inkscape:label="Capa 1"
     inkscape:groupmode="layer"
     id="layer1">
    <rect
       style="fill:#ee3523;fill-opacity:1;stroke-width:0.2521843"
       id="rect4518"
       width="95.25"
       height="97.139877"
       x="0.079236574"
       y="0.42490855"
       inkscape:export-filename="E:\Segundo Curso\MovilesJuegos\Proyecto1erTrimestre\app\src\main\res\drawable\logo.png"
       inkscape:export-xdpi="96"
       inkscape:export-ydpi="96" />
    <g
       aria-label="Dis Fruta

"
       style="font-style:normal;font-weight:normal;font-size:8.96561241px;line-height:1.25;font-family:sans-serif;letter-spacing:0px;word-spacing:0px;fill:#ee3523;fill-opacity:1;stroke:none;stroke-width:0.22414032"
       id="text825-0"
       transform="matrix(1.2212592,0,0,1.2212592,-32.702185,-52.197145)">
      <path
         d="m 141.12483,98.592643 q -0.5738,0.788974 -1.51818,1.374727 -0.94437,0.58575 -1.8768,0.84874 -0.92047,0.263 -1.7214,0.263 -0.69334,0 -1.06391,-0.20322 -0.37058,-0.20322 -0.46622,-0.51403 0,-0.012 -0.0119,-0.0239 0,-0.0239 -0.012,-0.0359 -0.0478,0.0598 -0.17932,0.26299 -0.11954,0.19126 -0.20322,0.2869 -0.17931,0.19126 -0.29885,0.19126 -0.19127,0 -0.19127,-0.47816 0,-3.287393 1.67358,-6.778005 -0.0717,0.01195 -0.50207,0.107587 -0.43035,0.08368 -0.75311,0.155404 -0.31081,0.07173 -0.75311,0.227129 -0.44231,0.155404 -1.01611,0.406441 -0.5738,0.239083 -0.96828,0.585754 -0.39449,0.334716 -0.39449,0.669432 0,0.191266 0.1554,0.394487 0.15541,0.20322 0.33472,0.310808 0.20322,0.191266 0.25104,0.262991 h -0.0478 q 0.0359,0.09563 -0.0837,0.09563 -0.0239,0 -0.0598,-0.01195 -0.0359,-0.01195 -0.0956,-0.03586 -0.0598,-0.02391 -0.0956,-0.03586 -0.4184,-0.262991 -0.5499,-0.406441 -0.35862,-0.370578 -0.35862,-0.729203 0,-0.406441 0.46621,-0.788974 0.45426,-0.382533 1.09978,-0.63357 0.64553,-0.262991 1.41059,-0.478166 0.76507,-0.215174 1.30301,-0.310808 0.53793,-0.107587 0.84874,-0.143449 0.23908,-0.525983 0.45426,-0.765066 h 0.0239 q 0.33471,-0.08368 0.62161,-0.08368 0.1315,0 0.1315,0.04782 -0.2869,0.286899 -0.50208,0.753111 0.0239,0 0.0598,0 1.04001,0 1.93658,0.191266 0.89656,0.179313 1.53013,0.514029 0.64552,0.322762 1.09978,0.765065 0.46621,0.442304 0.69334,0.956332 0.22713,0.502075 0.22713,1.051966 0,0.896561 -0.59771,1.733351 z m -7.01708,1.637717 q 0.0119,-0.0119 0.10758,-0.11954 0.0956,-0.119541 0.16736,-0.167358 0.0717,-0.05977 0.1315,-0.05977 0.0239,0 0.0478,0.01195 0.0239,0.01196 0.0359,0.03586 0.012,0.02391 0.0239,0.04782 0.012,0.02391 0.0239,0.05978 0.012,0.0239 0.0598,0.14345 0.0598,0.10758 0.0837,0.1554 0.0239,0.0359 0.0837,0.11954 0.0598,0.0837 0.11954,0.1315 0.0717,0.0359 0.15541,0.0717 0.29885,0.10759 0.71725,0.10759 0.71724,0 1.61381,-0.29886 0.90851,-0.3108 1.69748,-0.800693 0.80093,-0.502075 1.21933,-1.040011 0.8846,-1.135645 0.8846,-2.115885 0,-0.872653 -0.70529,-1.530131 -0.69334,-0.657478 -1.78117,-0.968286 -1.07587,-0.310808 -2.34301,-0.310808 -0.22713,0 -0.45426,0.01195 -1.5899,2.773363 -1.8768,6.466974 0,0.0359 -0.0119,0.0478 z"
         style="font-style:normal;font-variant:normal;font-weight:normal;font-stretch:normal;font-size:11.95414925px;font-family:'Bilbo Swash Caps';-inkscape-font-specification:'Bilbo Swash Caps, Normal';font-variant-ligatures:normal;font-variant-caps:normal;font-variant-numeric:normal;font-feature-settings:normal;text-align:start;writing-mode:lr-tb;text-anchor:start;fill:#ee3523;fill-opacity:1;stroke-width:0.22414032"
         id="path912"
         inkscape:connector-curvature="0" />
      <path
         d="m 144.96174,94.062021 q 0,0.155404 -0.22713,0.394487 -0.22713,0.239082 -0.2869,0.370578 -0.1554,0.394487 -0.33472,0.442304 -0.23908,0 -0.23908,-0.394487 0,-0.251037 0.37058,-0.549891 0.37058,-0.298854 0.64552,-0.298854 0.0598,0 0.0717,0.03586 z m -0.68139,2.044159 q -0.0239,0.03586 -0.16736,0.298854 -0.13149,0.262991 -0.22712,0.454258 -0.0956,0.191266 -0.263,0.561845 -0.16735,0.370578 -0.29885,0.705294 -0.13149,0.334717 -0.27494,0.800928 -0.14345,0.466212 -0.25104,0.932424 -0.012,0.03586 -0.012,0.09563 0,0.143457 0.11955,0.143457 0.0717,0 0.38253,-0.179319 0.32276,-0.179313 0.41839,-0.179313 0.0837,0 0.0956,0.04782 0,0.14345 -0.60966,0.537932 -0.60967,0.38254 -0.8368,0.38254 -0.22712,0 -0.22712,-0.21518 0,-0.10758 0.0478,-0.25103 0.1315,-0.370583 0.26299,-0.76507 0.14345,-0.394487 0.21518,-0.609661 0.0717,-0.215175 0.14345,-0.442304 0.0837,-0.227129 0.11954,-0.334716 0.0359,-0.119542 0.0598,-0.227129 0.0359,-0.119541 0.0478,-0.179312 0.0119,-0.05977 0.0119,-0.119542 0,-0.04782 -0.0239,-0.08368 -0.0119,-0.04782 -0.0119,-0.07173 0,-0.04782 0.0359,-0.155404 0.26299,-0.753111 0.46621,-1.004148 0.20322,-0.251037 0.59771,-0.251037 0.1554,0 0.17931,0.107587 z"
         style="font-style:normal;font-variant:normal;font-weight:normal;font-stretch:normal;font-size:11.95414925px;font-family:'Bilbo Swash Caps';-inkscape-font-specification:'Bilbo Swash Caps, Normal';font-variant-ligatures:normal;font-variant-caps:normal;font-variant-numeric:normal;font-feature-settings:normal;text-align:start;writing-mode:lr-tb;text-anchor:start;fill:#ee3523;fill-opacity:1;stroke-width:0.22414032"
         id="path914"
         inkscape:connector-curvature="0" />
      <path
         d="m 147.3522,96.536529 q -0.0239,0.239083 -0.31081,0.681387 -0.2869,0.442304 -0.44231,0.442304 -0.0478,0 -0.0478,-0.07173 0,-0.107588 0.13149,-0.43035 0.1315,-0.334716 0.1315,-0.430349 0,-0.179312 -0.21518,-0.179312 -0.0359,0 -0.39448,0.05977 -0.29886,0.07173 -0.78898,0.382533 -0.47816,0.310808 -0.47816,0.681387 0,0.131495 0.0598,0.239083 0.1554,0.310808 0.53793,0.525982 0.39449,0.215175 0.66944,0.406441 0.2869,0.191267 0.2869,0.502075 0,0.525982 -0.81289,1.0161 -0.80092,0.47816 -1.37472,0.47816 -0.0956,0 -0.15541,-0.0837 -0.0598,-0.0717 -0.0598,-0.1554 0,-0.14345 0.1315,-0.14345 0.39448,0 1.09978,-0.23908 0.71725,-0.251035 0.71725,-0.537934 0,-0.167358 -0.27495,-0.394487 -0.26299,-0.227129 -0.58575,-0.418395 -0.31081,-0.191267 -0.58575,-0.454258 -0.26299,-0.274946 -0.26299,-0.525983 0,-0.20322 0.14345,-0.382532 0.10758,-0.131496 0.22712,-0.251038 0.11955,-0.131495 0.22713,-0.227128 0.10759,-0.09563 0.23909,-0.191267 0.14345,-0.09563 0.25103,-0.167358 0.10759,-0.07173 0.25104,-0.14345 0.14345,-0.07173 0.22713,-0.107587 0.0837,-0.04782 0.21517,-0.107587 0.14345,-0.05977 0.19127,-0.07173 0.0598,-0.02391 0.17931,-0.07172 0.11954,-0.04782 0.1315,-0.04782 0.20322,-0.05977 0.31081,-0.05977 0.43035,0 0.43035,0.478165 z"
         style="font-style:normal;font-variant:normal;font-weight:normal;font-stretch:normal;font-size:11.95414925px;font-family:'Bilbo Swash Caps';-inkscape-font-specification:'Bilbo Swash Caps, Normal';font-variant-ligatures:normal;font-variant-caps:normal;font-variant-numeric:normal;font-feature-settings:normal;text-align:start;writing-mode:lr-tb;text-anchor:start;fill:#ee3523;fill-opacity:1;stroke-width:0.22414032"
         id="path916"
         inkscape:connector-curvature="0" />
      <path
         d="m 150.05533,99.560929 q 0,-0.215174 0.0359,-0.394487 0.0478,-0.179312 0.11954,-0.179312 0.0837,0 0.11954,0.334716 0,0.167358 0.0717,0.466212 0.0717,0.298852 0.23908,0.693342 0.16736,0.38253 0.40644,0.71725 0.23909,0.34667 0.62162,0.5738 0.38253,0.23908 0.82483,0.23908 0.0837,0 0.16736,-0.0119 0.38254,-0.0359 0.75311,-0.29886 0.38254,-0.25104 0.69335,-0.70529 0.3108,-0.45426 0.56184,-0.88461 0.25104,-0.430349 0.49012,-1.051965 0.25104,-0.621616 0.37058,-0.944378 0.11954,-0.334716 0.27494,-0.824836 -0.012,0 -0.10758,0 -0.0837,0 -0.22713,0 -0.1315,0 -0.27495,0 -0.80093,0 -1.0161,-0.03586 -0.10759,-0.05977 -0.10759,-0.215174 0,-0.167358 0.10759,-0.167358 l 0.63357,-0.02391 q 0.62162,-0.02391 1.12369,-0.02391 0.14345,-0.442303 0.43035,-1.350819 0.2869,-0.908515 0.40644,-1.26714 -1.35082,-0.585753 -2.47451,-0.896561 -1.11173,-0.322762 -2.30715,-0.322762 -0.93242,0 -1.51818,0.274946 -0.5738,0.274945 -0.5738,0.800928 0,0.681386 0.71725,1.75726 0.72921,1.063919 1.41059,1.542085 0.23909,0.167358 0.59771,0.370578 0.37058,0.203221 0.47817,0.274946 0.0956,0.05977 0.0717,0.119541 -0.0239,0.04782 -0.14345,0.02391 -1.24323,-0.274946 -2.3191,-1.482315 -1.07588,-1.207369 -1.19542,-2.354967 -0.012,-0.131496 -0.012,-0.262992 0,-1.625764 2.24738,-1.625764 0.65748,0 1.37472,0.155404 0.72921,0.14345 1.12369,0.274946 0.39449,0.131495 1.35082,0.514028 0.96829,0.382533 1.2791,0.502074 0.31081,-0.896561 0.39448,-0.908515 0.0239,0 0.0478,0 0.0239,-0.01195 0.0359,-0.01195 0.0239,0 0.0359,0 0.0239,-0.01195 0.0478,-0.01195 0.0717,0 0.1315,0.02391 0.0598,0.02391 0.0956,0.04782 0.0478,0.02391 0.0956,0.08368 0.0478,0.05977 0.0598,0.09563 0.0239,0.02391 0.0837,0.119541 0.0598,0.08368 0.0717,0.107588 0.012,0.03586 0.0239,0.08368 0.0119,0.03586 0.0239,0.07172 0.0119,0.02391 0.0119,0.05977 0.012,0.02391 0.012,0.05977 0,0.04782 -0.0239,0.08368 -0.0239,0.03586 -0.0598,0.03586 -0.0956,0 -0.27495,-0.167358 -0.0478,-0.07173 -0.0956,-0.07173 -0.0598,0 -0.1315,0.107588 -0.0717,0.09563 -0.11954,0.20322 -0.0359,0.107588 -0.0359,0.155404 0.75311,0.262992 1.33886,0.43035 0.58576,0.155404 0.94438,0.155404 0.1554,0 0.26299,-0.03586 0.11954,-0.03586 0.16736,-0.107587 0.0717,-0.09563 0.20322,-0.09563 0.1315,0 0.1315,0.09563 0,0.119541 -0.16736,0.286899 -0.29886,0.298854 -0.8607,0.298854 -0.82484,0 -2.13979,-0.621616 -0.72921,2.211518 -0.77702,2.378876 1.78116,0 2.04416,0.119542 0.0837,0.05977 0.0359,0.107587 -0.0359,0.04782 -0.1315,0.05977 -0.0359,0 -0.34667,0.03586 -0.31081,0.02391 -0.81288,0.05977 -0.49012,0.03586 -0.92047,0.05977 -0.52598,1.924618 -0.89656,2.713591 -0.77702,1.637717 -2.11589,2.139797 -0.3108,0.11954 -0.7292,0.11954 -0.59771,0 -1.15955,-0.25104 -0.56185,-0.25104 -0.8607,-0.74116 -0.23908,-0.40644 -0.35862,-0.84874 -0.10759,-0.454259 -0.10759,-0.836792 z"
         style="font-style:normal;font-variant:normal;font-weight:normal;font-stretch:normal;font-size:11.95414925px;font-family:'Bilbo Swash Caps';-inkscape-font-specification:'Bilbo Swash Caps, Normal';font-variant-ligatures:normal;font-variant-caps:normal;font-variant-numeric:normal;font-feature-settings:normal;text-align:start;writing-mode:lr-tb;text-anchor:start;fill:#ee3523;fill-opacity:1;stroke-width:0.22414032"
         id="path918"
         inkscape:connector-curvature="0" />
      <path
         d="m 161.64338,97.110329 q -0.0956,0.131495 -0.26299,0.262991 -0.1554,0.119541 -0.23908,0.119541 -0.0717,0 -0.0717,-0.07172 0,-0.04782 0.10759,-0.334717 0.11954,-0.286899 0.11954,-0.394487 0,-0.08368 -0.0598,-0.08368 -0.4184,0 -1.24323,1.291048 -0.81288,1.291049 -1.20737,2.522325 -0.0717,0.0956 -0.22713,0.19126 -0.1554,0.0956 -0.26299,0.0956 -0.0717,0 -0.10759,-0.0598 0,-0.32277 0.0717,-0.58576 0.0837,-0.262985 0.20322,-0.310801 0.26299,-0.992195 0.37058,-1.482315 l 0.11954,-0.502074 q 0.0239,-0.08368 0.0239,-0.191267 0,-0.05977 -0.0239,-0.107587 -0.0239,-0.04782 -0.0239,-0.09563 0,-0.07173 0.0239,-0.131496 0.19126,-0.753111 0.38253,-1.028057 0.20322,-0.274945 0.58575,-0.274945 0.14345,0 0.16736,0.09563 -0.0119,0.03586 -0.17931,0.418395 -0.1554,0.382533 -0.29885,0.717249 -0.1315,0.334717 -0.29886,0.848745 -0.16736,0.514028 -0.26299,0.944378 0.39449,-0.77702 1.21932,-1.864848 0.82484,-1.099781 1.36278,-1.099781 0.2869,0 0.2869,0.358624 0,0.370579 -0.27495,0.753112 z"
         style="font-style:normal;font-variant:normal;font-weight:normal;font-stretch:normal;font-size:11.95414925px;font-family:'Bilbo Swash Caps';-inkscape-font-specification:'Bilbo Swash Caps, Normal';font-variant-ligatures:normal;font-variant-caps:normal;font-variant-numeric:normal;font-feature-settings:normal;text-align:start;writing-mode:lr-tb;text-anchor:start;fill:#ee3523;fill-opacity:1;stroke-width:0.22414032"
         id="path920"
         inkscape:connector-curvature="0" />
      <path
         d="m 165.63046,96.046409 q -0.0359,0.107588 -0.26299,0.717249 -0.22713,0.609662 -0.37058,1.028057 -0.21517,0.609662 -0.46621,1.482315 -0.23908,0.87265 -0.23908,1.06392 0,0.0359 0.0239,0.0359 0.0956,0 0.47816,-0.29885 0.39449,-0.298856 0.53794,-0.298856 0.0956,0 0.0956,0.05977 0,0.08368 -0.27494,0.274946 -0.26299,0.19127 -0.60966,0.40644 -0.34667,0.20322 -0.38254,0.22713 -0.0837,0.0717 -0.25103,0.23908 -0.15541,0.17932 -0.29886,0.2869 -0.13149,0.11954 -0.23908,0.11954 -0.1554,0 -0.1554,-0.13149 0,-0.0837 0.19126,-0.26299 0.19127,-0.16736 0.25104,-0.29886 0.20322,-0.49012 0.81288,-2.857039 -0.56184,0.83679 -1.49427,1.876801 -0.92047,1.028058 -1.38668,1.028058 -0.16736,0 -0.16736,-0.21517 0,-0.17932 0.1315,-0.51403 0,-0.012 0.2869,-0.645528 0.2869,-0.63357 0.45426,-1.087828 0.17931,-0.466212 0.17931,-0.669432 0,-0.05977 -0.0239,-0.107587 -0.0239,-0.05977 -0.0239,-0.09563 0,-0.01195 0.0239,-0.131495 0.20322,-0.765066 0.38253,-1.004149 0.17932,-0.251037 0.59771,-0.251037 0.16736,0 0.20322,0.107587 -1.4345,3.526474 -1.4345,3.693833 0,0.04782 0.0359,0.04782 0.0478,0 0.2869,-0.191266 1.19541,-0.92047 2.10393,-2.582097 0.012,-0.370578 0.22712,-0.765065 0.21518,-0.394487 0.63357,-0.394487 0.1315,0 0.14345,0.107587 z"
         style="font-style:normal;font-variant:normal;font-weight:normal;font-stretch:normal;font-size:11.95414925px;font-family:'Bilbo Swash Caps';-inkscape-font-specification:'Bilbo Swash Caps, Normal';font-variant-ligatures:normal;font-variant-caps:normal;font-variant-numeric:normal;font-feature-settings:normal;text-align:start;writing-mode:lr-tb;text-anchor:start;fill:#ee3523;fill-opacity:1;stroke-width:0.22414032"
         id="path922"
         inkscape:connector-curvature="0" />
      <path
         d="m 167.1365,96.153997 0.0478,-0.167358 q 0.0359,-0.14345 0.0359,-0.203221 0,-0.04782 -0.0239,-0.08368 -0.0239,-0.04782 -0.0239,-0.08368 0,-0.03586 0.0359,-0.14345 0.23908,-0.765065 0.43035,-1.016102 0.20322,-0.251038 0.58575,-0.251038 0.16736,0 0.19127,0.107588 -0.263,0.561845 -0.72921,1.840939 h 1.15955 q 0.33472,0 0.33472,0.07173 0,0.119541 -0.54989,0.191266 -0.54989,0.05977 -1.05197,0.05977 -0.5977,1.685535 -0.96828,3.22762 -0.0598,0.239083 -0.0598,0.346669 0,0.20322 0.13149,0.20322 0.23909,0 0.69334,-0.418393 0.46622,-0.43035 0.50208,-0.43035 0.0598,0 0.0598,0.07173 0,0.203221 -0.1315,0.262991 -1.09978,0.992202 -1.54208,0.992202 -0.27495,0 -0.27495,-0.34667 0,-0.19127 0.2869,-1.123697 0.0359,-0.119542 0.76507,-2.737501 -0.2869,0.04782 -0.80093,0.04782 -0.27495,0 -0.27495,-0.107587 0,-0.08368 0.15541,-0.191267 0.1554,-0.119541 0.25104,-0.119541 z"
         style="font-style:normal;font-variant:normal;font-weight:normal;font-stretch:normal;font-size:11.95414925px;font-family:'Bilbo Swash Caps';-inkscape-font-specification:'Bilbo Swash Caps, Normal';font-variant-ligatures:normal;font-variant-caps:normal;font-variant-numeric:normal;font-feature-settings:normal;text-align:start;writing-mode:lr-tb;text-anchor:start;fill:#ee3523;fill-opacity:1;stroke-width:0.22414032"
         id="path924"
         inkscape:connector-curvature="0" />
      <path
         d="m 172.05526,99.680471 q -0.012,0.01195 -0.10759,0.107587 -0.0956,0.08368 -0.1554,0.131496 -0.0598,0.04782 -0.17932,0.155406 -0.10758,0.0956 -0.19126,0.1554 -0.0837,0.0598 -0.20322,0.14345 -0.11955,0.0837 -0.21518,0.1315 -0.0837,0.0359 -0.17931,0.0717 -0.0956,0.0359 -0.17931,0.0359 -0.25104,0 -0.29886,-0.29885 0,-0.502074 0.39449,-1.852892 -1.60186,2.211522 -2.2952,2.211522 -0.2869,0 -0.2869,-0.43035 0,-0.549895 0.32277,-1.482319 0.33471,-0.944378 0.81288,-1.697489 0.47816,-0.765066 0.83679,-0.765066 h 0.0359 l 0.1315,-0.09563 q 0.10758,-0.119541 0.33471,-0.119541 0.17932,0 0.50208,0.09563 0.32276,0.09563 0.35862,0.09563 0.0478,0 0.11954,-0.09563 0.0837,-0.09563 0.19127,-0.09563 0.29885,0 0.29885,0.262991 0,0.107587 -0.0478,0.239083 -0.0359,0.131496 -0.11954,0.310808 -0.0717,0.167358 -0.0837,0.20322 -0.012,0.02391 -0.11955,0.07172 -0.0956,0.04782 -0.10758,0.08368 -0.26299,0.741158 -0.46621,1.589902 -0.20322,0.836791 -0.20322,1.028057 0,0.298854 0.16735,0.298854 0.16736,0 0.40644,-0.203221 0.25104,-0.20322 0.43035,-0.406441 0.17932,-0.20322 0.19127,-0.20322 0.0239,0 0.0239,0.04782 0,0.179313 -0.11954,0.274946 z m -0.78898,-3.179804 q -0.0717,0 -0.25103,-0.02391 -0.16736,-0.02391 -0.2869,-0.02391 -0.16736,0 -0.35863,0.04782 -0.29885,0.08368 -0.98024,1.422544 -0.68139,1.32691 -0.68139,1.984389 0,0.20322 0.11955,0.20322 0.25103,0 0.8846,-0.729203 0.64553,-0.729203 0.84875,-1.040011 0.29885,-0.478166 0.54989,-1.028057 0.25104,-0.561845 0.25104,-0.741157 0,-0.07172 -0.0598,-0.07172 z"
         style="font-style:normal;font-variant:normal;font-weight:normal;font-stretch:normal;font-size:11.95414925px;font-family:'Bilbo Swash Caps';-inkscape-font-specification:'Bilbo Swash Caps, Normal';font-variant-ligatures:normal;font-variant-caps:normal;font-variant-numeric:normal;font-feature-settings:normal;text-align:start;writing-mode:lr-tb;text-anchor:start;fill:#ee3523;fill-opacity:1;stroke-width:0.22414032"
         id="path926"
         inkscape:connector-curvature="0" />
    </g>
    <g
       aria-label="Frutería Store"
       style="font-style:normal;font-weight:normal;font-size:9.93009472px;line-height:1.25;font-family:sans-serif;letter-spacing:0px;word-spacing:0px;fill:#000000;fill-opacity:1;stroke:none;stroke-width:0.24825238"
       id="text833-3"
       transform="matrix(1.2212592,0,0,1.2212592,-32.702185,-50.258394)">
      <path
         d="m 126.54283,104.13206 -0.0894,1.27105 v 0.74475 h 0.95329 l 0.94336,-0.0993 -0.0794,0.74476 h -1.81721 v 0.69511 l 0.13903,1.95623 h -1.11217 l 0.13902,-1.96616 v -2.08532 l -0.13902,-1.95623 h 3.3663 l -0.0894,0.81427 -1.11217,-0.11916 z"
         style="font-style:normal;font-variant:normal;font-weight:normal;font-stretch:normal;font-size:9.93009472px;font-family:Galdeano;-inkscape-font-specification:'Galdeano, Normal';font-variant-ligatures:normal;font-variant-caps:normal;font-variant-numeric:normal;font-feature-settings:normal;text-align:start;writing-mode:lr-tb;text-anchor:start;fill:#000000;fill-opacity:1;stroke-width:0.24825238"
         id="path885"
         inkscape:connector-curvature="0" />
      <path
         d="m 129.7051,109.44466 0.13902,-1.96616 v -1.39022 l -0.14896,-1.0228 1.00294,-0.0993 -0.0397,0.74476 q 0.34756,-0.41706 0.61567,-0.5958 0.26811,-0.17875 0.55609,-0.17875 0.2979,0 0.58587,0.12909 l -0.26811,0.85399 -0.89371,-0.26811 q -0.36741,0.32769 -0.64546,0.83413 v 1.00294 l 0.10923,1.95623 z"
         style="font-style:normal;font-variant:normal;font-weight:normal;font-stretch:normal;font-size:9.93009472px;font-family:Galdeano;-inkscape-font-specification:'Galdeano, Normal';font-variant-ligatures:normal;font-variant-caps:normal;font-variant-numeric:normal;font-feature-settings:normal;text-align:start;writing-mode:lr-tb;text-anchor:start;fill:#000000;fill-opacity:1;stroke-width:0.24825238"
         id="path887"
         inkscape:connector-curvature="0" />
      <path
         d="m 133.11096,108.22325 v -3.11805 l 0.97315,-0.0496 -0.13902,2.13497 v 1.04266 q 0,0.36742 0.11916,0.5263 0.11916,0.14895 0.39721,0.14895 0.5958,0 1.31077,-0.36741 l -0.11916,-3.43582 0.95329,-0.0496 v 3.38617 l 0.14895,1.0228 -0.98308,0.0993 v -0.49651 q -0.80434,0.5263 -1.61861,0.5263 -0.50643,0 -0.77455,-0.34756 -0.26811,-0.35748 -0.26811,-1.0228 z"
         style="font-style:normal;font-variant:normal;font-weight:normal;font-stretch:normal;font-size:9.93009472px;font-family:Galdeano;-inkscape-font-specification:'Galdeano, Normal';font-variant-ligatures:normal;font-variant-caps:normal;font-variant-numeric:normal;font-feature-settings:normal;text-align:start;writing-mode:lr-tb;text-anchor:start;fill:#000000;fill-opacity:1;stroke-width:0.24825238"
         id="path889"
         inkscape:connector-curvature="0" />
      <path
         d="m 137.62869,105.61164 -0.0298,-0.38727 0.89371,-0.28798 0.32769,-1.13203 h 0.427 l 0.0596,1.13203 h 1.25119 l -0.0298,0.5263 -1.25119,0.0894 v 2.47259 q 0,0.5263 0.0993,0.73483 0.10923,0.1986 0.41706,0.1986 0.31776,0 0.67525,-0.0993 l -0.0894,0.56602 q -0.33763,0.16881 -0.88378,0.16881 -0.54616,0 -0.81427,-0.29791 -0.25818,-0.2979 -0.25818,-1.02279 0,-0.24826 0.0596,-2.66127 z"
         style="font-style:normal;font-variant:normal;font-weight:normal;font-stretch:normal;font-size:9.93009472px;font-family:Galdeano;-inkscape-font-specification:'Galdeano, Normal';font-variant-ligatures:normal;font-variant-caps:normal;font-variant-numeric:normal;font-feature-settings:normal;text-align:start;writing-mode:lr-tb;text-anchor:start;fill:#000000;fill-opacity:1;stroke-width:0.24825238"
         id="path891"
         inkscape:connector-curvature="0" />
      <path
         d="m 143.32515,109.59361 q -0.89371,0 -1.45972,-0.59581 -0.56602,-0.5958 -0.56602,-1.63846 0,-1.05259 0.57595,-1.73777 0.57594,-0.68518 1.40014,-0.68518 0.83413,0 1.25119,0.40714 0.41707,0.40713 0.41707,1.14196 0,0.26811 -0.0496,0.64545 l -2.68113,0.0894 q 0,0.84405 0.28797,1.31077 0.29791,0.45678 0.83413,0.45678 0.70504,0 1.30084,-0.50643 l 0.26812,0.73482 q -0.67525,0.37735 -1.57889,0.37735 z m -1.09231,-2.88966 1.80728,-0.0794 q -0.01,-0.60574 -0.1986,-0.84406 -0.18868,-0.23832 -0.61567,-0.23832 -0.42699,0 -0.66532,0.0894 -0.24825,0.26811 -0.32769,1.07245 z"
         style="font-style:normal;font-variant:normal;font-weight:normal;font-stretch:normal;font-size:9.93009472px;font-family:Galdeano;-inkscape-font-specification:'Galdeano, Normal';font-variant-ligatures:normal;font-variant-caps:normal;font-variant-numeric:normal;font-feature-settings:normal;text-align:start;writing-mode:lr-tb;text-anchor:start;fill:#000000;fill-opacity:1;stroke-width:0.24825238"
         id="path893"
         inkscape:connector-curvature="0" />
      <path
         d="m 146.09363,109.44466 0.13902,-1.96616 v -1.39022 l -0.14895,-1.0228 1.00294,-0.0993 -0.0397,0.74476 q 0.34755,-0.41706 0.61567,-0.5958 0.26811,-0.17875 0.55608,-0.17875 0.2979,0 0.58588,0.12909 l -0.26812,0.85399 -0.89371,-0.26811 q -0.36741,0.32769 -0.64545,0.83413 v 1.00294 l 0.10923,1.95623 z"
         style="font-style:normal;font-variant:normal;font-weight:normal;font-stretch:normal;font-size:9.93009472px;font-family:Galdeano;-inkscape-font-specification:'Galdeano, Normal';font-variant-ligatures:normal;font-variant-caps:normal;font-variant-numeric:normal;font-feature-settings:normal;text-align:start;writing-mode:lr-tb;text-anchor:start;fill:#000000;fill-opacity:1;stroke-width:0.24825238"
         id="path895"
         inkscape:connector-curvature="0" />
      <path
         d="m 149.33069,109.44466 0.13902,-1.96616 v -1.39022 l -0.14895,-1.0228 1.0228,-0.0993 -0.10923,1.9463 v 0.57595 l 0.10923,1.95623 z m -0.0695,-4.98491 -0.2284,-0.31776 1.38029,-1.34057 0.58587,0.64546 z"
         style="font-style:normal;font-variant:normal;font-weight:normal;font-stretch:normal;font-size:9.93009472px;font-family:Galdeano;-inkscape-font-specification:'Galdeano, Normal';font-variant-ligatures:normal;font-variant-caps:normal;font-variant-numeric:normal;font-feature-settings:normal;text-align:start;writing-mode:lr-tb;text-anchor:start;fill:#000000;fill-opacity:1;stroke-width:0.24825238"
         id="path897"
         inkscape:connector-curvature="0" />
      <path
         d="m 152.74183,109.59361 q -0.63553,0 -0.98308,-0.33763 -0.33762,-0.34755 -0.33762,-0.94335 0,-0.59581 0.48657,-0.88378 0.48658,-0.28798 2.0456,-0.57595 0,-0.75469 -0.16881,-1.04266 -0.16881,-0.28797 -0.60574,-0.28797 -0.23832,0 -0.37734,0.0199 l -0.83413,0.73483 -0.44685,-0.74476 q 0.76461,-0.60574 1.70797,-0.60574 1.55903,0 1.55903,1.56896 v 1.83707 l 0.17874,1.1221 -0.9235,0.13902 -0.0397,-0.49651 q -0.61567,0.49651 -1.26112,0.49651 z m -0.47665,-1.3207 q 0,0.32769 0.19861,0.51636 0.20853,0.18867 0.63552,0.18867 0.43693,0 0.85399,-0.30783 v -1.25119 q -0.95329,0.13902 -1.61861,0.42699 -0.0695,0.26811 -0.0695,0.427 z"
         style="font-style:normal;font-variant:normal;font-weight:normal;font-stretch:normal;font-size:9.93009472px;font-family:Galdeano;-inkscape-font-specification:'Galdeano, Normal';font-variant-ligatures:normal;font-variant-caps:normal;font-variant-numeric:normal;font-feature-settings:normal;text-align:start;writing-mode:lr-tb;text-anchor:start;fill:#000000;fill-opacity:1;stroke-width:0.24825238"
         id="path899"
         inkscape:connector-curvature="0" />
      <path
         d="m 158.16428,109.27584 0.33762,-1.00293 q 0.57595,0.37734 0.93343,0.51636 0.36742,0.13902 0.75469,0.13902 0.65539,0 1.03273,-0.3972 0.0298,-0.14895 0.0298,-0.30784 0,-0.46671 -0.31776,-0.78447 -0.30784,-0.31777 -0.75469,-0.50644 -0.43692,-0.18867 -0.88378,-0.3972 -0.44685,-0.20853 -0.76462,-0.59581 -0.30783,-0.38727 -0.30783,-0.96322 0,-0.74475 0.61567,-1.20154 0.62559,-0.45678 1.63846,-0.45678 0.70504,0 1.32071,0.27804 l -0.28798,0.93343 q -0.83412,-0.55609 -1.38028,-0.55609 -0.53623,0 -1.08238,0.33763 0,0.58587 0.30783,0.96322 0.30784,0.36741 0.75469,0.56601 0.44685,0.1986 0.88378,0.39721 0.44685,0.1986 0.75469,0.57594 0.30783,0.36741 0.30783,0.95329 0,0.79441 -0.64546,1.31077 -0.63552,0.51637 -1.53916,0.51637 -0.90364,0 -1.70798,-0.31777 z"
         style="font-style:normal;font-variant:normal;font-weight:normal;font-stretch:normal;font-size:9.93009472px;font-family:Galdeano;-inkscape-font-specification:'Galdeano, Normal';font-variant-ligatures:normal;font-variant-caps:normal;font-variant-numeric:normal;font-feature-settings:normal;text-align:start;writing-mode:lr-tb;text-anchor:start;fill:#000000;fill-opacity:1;stroke-width:0.24825238"
         id="path901"
         inkscape:connector-curvature="0" />
      <path
         d="m 162.88061,105.61164 -0.0298,-0.38727 0.89371,-0.28798 0.32769,-1.13203 h 0.427 l 0.0596,1.13203 H 165.81 l -0.0298,0.5263 -1.25119,0.0894 v 2.47259 q 0,0.5263 0.0993,0.73483 0.10923,0.1986 0.41706,0.1986 0.31777,0 0.67525,-0.0993 l -0.0894,0.56602 q -0.33762,0.16881 -0.88378,0.16881 -0.54616,0 -0.81427,-0.29791 -0.25818,-0.2979 -0.25818,-1.02279 0,-0.24826 0.0596,-2.66127 z"
         style="font-style:normal;font-variant:normal;font-weight:normal;font-stretch:normal;font-size:9.93009472px;font-family:Galdeano;-inkscape-font-specification:'Galdeano, Normal';font-variant-ligatures:normal;font-variant-caps:normal;font-variant-numeric:normal;font-feature-settings:normal;text-align:start;writing-mode:lr-tb;text-anchor:start;fill:#000000;fill-opacity:1;stroke-width:0.24825238"
         id="path903"
         inkscape:connector-curvature="0" />
      <path
         d="m 168.49763,109.59361 q -0.9235,0 -1.43986,-0.58588 -0.50644,-0.58587 -0.50644,-1.66825 0,-1.09231 0.54616,-1.7477 0.54615,-0.65539 1.46965,-0.65539 0.93343,0 1.43987,0.58588 0.51636,0.57594 0.51636,1.66825 0,1.08239 -0.54615,1.7477 -0.54616,0.65539 -1.47959,0.65539 z m 0.14895,-0.60574 q 0.29791,0 0.63553,-0.0993 0.32769,-0.46671 0.32769,-1.46965 0,-1.01287 -0.2979,-1.43987 -0.28797,-0.43692 -0.90364,-0.43692 -0.22839,0 -0.61566,0.0993 -0.3277,0.45678 -0.3277,1.46965 0,1.01287 0.27804,1.4498 0.28798,0.42699 0.90364,0.42699 z"
         style="font-style:normal;font-variant:normal;font-weight:normal;font-stretch:normal;font-size:9.93009472px;font-family:Galdeano;-inkscape-font-specification:'Galdeano, Normal';font-variant-ligatures:normal;font-variant-caps:normal;font-variant-numeric:normal;font-feature-settings:normal;text-align:start;writing-mode:lr-tb;text-anchor:start;fill:#000000;fill-opacity:1;stroke-width:0.24825238"
         id="path905"
         inkscape:connector-curvature="0" />
      <path
         d="m 171.67526,109.44466 0.13902,-1.96616 v -1.39022 l -0.14895,-1.0228 1.00294,-0.0993 -0.0397,0.74476 q 0.34755,-0.41706 0.61567,-0.5958 0.26811,-0.17875 0.55608,-0.17875 0.2979,0 0.58588,0.12909 l -0.26812,0.85399 -0.8937,-0.26811 q -0.36742,0.32769 -0.64546,0.83413 v 1.00294 l 0.10923,1.95623 z"
         style="font-style:normal;font-variant:normal;font-weight:normal;font-stretch:normal;font-size:9.93009472px;font-family:Galdeano;-inkscape-font-specification:'Galdeano, Normal';font-variant-ligatures:normal;font-variant-caps:normal;font-variant-numeric:normal;font-feature-settings:normal;text-align:start;writing-mode:lr-tb;text-anchor:start;fill:#000000;fill-opacity:1;stroke-width:0.24825238"
         id="path907"
         inkscape:connector-curvature="0" />
      <path
         d="m 176.85862,109.59361 q -0.89371,0 -1.45973,-0.59581 -0.56601,-0.5958 -0.56601,-1.63846 0,-1.05259 0.57594,-1.73777 0.57595,-0.68518 1.40015,-0.68518 0.83412,0 1.25119,0.40714 0.41706,0.40713 0.41706,1.14196 0,0.26811 -0.0496,0.64545 l -2.68112,0.0894 q 0,0.84405 0.28797,1.31077 0.2979,0.45678 0.83413,0.45678 0.70503,0 1.30084,-0.50643 l 0.26811,0.73482 q -0.67524,0.37735 -1.57888,0.37735 z m -1.09231,-2.88966 1.80727,-0.0794 q -0.01,-0.60574 -0.1986,-0.84406 -0.18867,-0.23832 -0.61566,-0.23832 -0.427,0 -0.66532,0.0894 -0.24825,0.26811 -0.32769,1.07245 z"
         style="font-style:normal;font-variant:normal;font-weight:normal;font-stretch:normal;font-size:9.93009472px;font-family:Galdeano;-inkscape-font-specification:'Galdeano, Normal';font-variant-ligatures:normal;font-variant-caps:normal;font-variant-numeric:normal;font-feature-settings:normal;text-align:start;writing-mode:lr-tb;text-anchor:start;fill:#000000;fill-opacity:1;stroke-width:0.24825238"
         id="path909"
         inkscape:connector-curvature="0" />
    </g>
    <path
       style="color:#000000;font-style:normal;font-variant:normal;font-weight:normal;font-stretch:normal;font-size:medium;line-height:normal;font-family:sans-serif;font-variant-ligatures:normal;font-variant-position:normal;font-variant-caps:normal;font-variant-numeric:normal;font-variant-alternates:normal;font-feature-settings:normal;text-indent:0;text-align:start;text-decoration:none;text-decoration-line:none;text-decoration-style:solid;text-decoration-color:#000000;letter-spacing:normal;word-spacing:normal;text-transform:none;writing-mode:lr-tb;direction:ltr;text-orientation:mixed;dominant-baseline:auto;baseline-shift:baseline;text-anchor:start;white-space:normal;shape-padding:0;clip-rule:nonzero;display:inline;overflow:visible;visibility:visible;opacity:1;isolation:auto;mix-blend-mode:normal;color-interpolation:sRGB;color-interpolation-filters:linearRGB;solid-color:#000000;solid-opacity:1;vector-effect:none;fill:#ee3523;fill-opacity:1;fill-rule:nonzero;stroke:none;stroke-width:0.78567666;stroke-linecap:butt;stroke-linejoin:miter;stroke-miterlimit:4;stroke-dasharray:none;stroke-dashoffset:0;stroke-opacity:1;color-rendering:auto;image-rendering:auto;shape-rendering:auto;text-rendering:auto;enable-background:accumulate"
       d="m 128.72141,34.244924 0.27832,0.278298 23.12567,23.12554 23.40387,-23.403844 -23.40387,-23.403839 z m 1.10983,1e-6 22.29416,-22.294034 22.29406,22.294033 -22.29406,22.294034 z"
       id="rect839-4"
       inkscape:connector-curvature="0" />
    <g
       aria-label="D"
       transform="matrix(1.106586,-0.51666366,0.51666366,1.106586,-32.702184,-52.197143)"
       style="font-style:normal;font-weight:normal;font-size:18.69618607px;line-height:1.25;font-family:sans-serif;letter-spacing:0px;word-spacing:0px;fill:#ee3523;fill-opacity:1;stroke:none;stroke-width:0.46740463"
       id="text4522-8">
      <path
         d="m 100.67202,125.25066 q 0,-2.00049 1.73874,-3.14095 1.73875,-1.14047 4.00099,-1.14047 2.8979,0 5.08536,1.66396 1.08438,0.84133 1.68266,2.24354 0.59827,1.38352 0.59827,3.06618 0,3.30922 -1.88831,5.3845 -1.9631,2.11267 -4.9171,2.11267 -0.65436,0 -1.38352,-0.16827 -0.72915,-0.16827 -1.15916,-0.44871 -0.69176,0.52349 -1.77614,0.52349 -1.06568,0 -1.66396,-0.59827 -0.59828,-0.59828 -0.59828,-1.53309 0,-2.20615 3.34662,-3.75793 0.0935,-0.78524 0.26175,-2.11267 0.18696,-1.34613 0.28044,-2.16876 0.11218,-0.82263 0.14957,-1.08438 0.76654,-0.4861 1.77614,-0.4861 0.4674,0 0.89741,0.0935 l -1.17785,7.98327 q -0.16827,1.06568 -0.46741,1.77614 0.57958,0.14957 0.93481,0.14957 2.15006,0 3.32792,-1.62657 1.21525,-1.70135 1.21525,-4.11316 0,-3.08487 -2.22484,-4.431 -1.23395,-0.74784 -2.71095,-0.74784 -1.88831,0 -2.99139,1.02829 -0.63567,0.57958 -0.63567,1.40221 0,0.43001 0.26175,0.82263 0.26174,0.37393 0.91611,0.43002 l -0.18696,1.21525 q -1.36482,-0.0748 -2.03789,-0.74785 -0.65436,-0.69176 -0.65436,-1.58918 z m 1.10307,7.72153 q 0,0.67306 0.63567,0.67306 0.26175,0 0.54219,-0.33653 0.29914,-0.35523 0.41132,-1.10307 l 0.16826,-1.15917 q -1.75744,0.9909 -1.75744,1.92571 z"
         style="font-style:normal;font-variant:normal;font-weight:normal;font-stretch:normal;font-size:18.69618607px;font-family:'Lily Script One';-inkscape-font-specification:'Lily Script One, Normal';font-variant-ligatures:normal;font-variant-caps:normal;font-variant-numeric:normal;font-feature-settings:normal;text-align:start;writing-mode:lr-tb;text-anchor:start;fill:#ee3523;fill-opacity:1;stroke-width:0.46740463"
         id="path881"
         inkscape:connector-curvature="0" />
    </g>
    <text
       xml:space="preserve"
       style="font-style:normal;font-weight:normal;font-size:10.48261738px;line-height:1.25;font-family:sans-serif;letter-spacing:0px;word-spacing:0px;fill:#ffffff;fill-opacity:1;stroke:none;stroke-width:0.26206544"
       x="24.255493"
       y="69.68129"
       id="text825-4"
       inkscape:export-filename="E:\Segundo Curso\MovilesJuegos\Proyecto1erTrimestre\app\src\main\res\drawable\Logo.png"
       inkscape:export-xdpi="96"
       inkscape:export-ydpi="96"><tspan
         sodipodi:role="line"
         id="tspan823-5"
         x="24.255493"
         y="69.68129"
         style="font-style:normal;font-variant:normal;font-weight:normal;font-stretch:normal;font-size:13.97682285px;font-family:'Bilbo Swash Caps';-inkscape-font-specification:'Bilbo Swash Caps, Normal';font-variant-ligatures:normal;font-variant-caps:normal;font-variant-numeric:normal;font-feature-settings:normal;text-align:start;writing-mode:lr-tb;text-anchor:start;fill:#ffffff;fill-opacity:1;stroke-width:0.26206544">Dis Fruta</tspan><tspan
         sodipodi:role="line"
         x="24.255493"
         y="85.464584"
         style="fill:#ffffff;fill-opacity:1;stroke-width:0.26206544"
         id="tspan827-6" /><tspan
         sodipodi:role="line"
         x="24.255493"
         y="98.567856"
         style="font-style:normal;font-variant:normal;font-weight:normal;font-stretch:normal;font-size:10.48261738px;font-family:Galdeano;-inkscape-font-specification:'Galdeano, Normal';font-variant-ligatures:normal;font-variant-caps:normal;font-variant-numeric:normal;font-feature-settings:normal;text-align:start;writing-mode:lr-tb;text-anchor:start;fill:#ffffff;fill-opacity:1;stroke-width:0.26206544"
         id="tspan829-0" /></text>
    <text
       xml:space="preserve"
       style="font-style:normal;font-weight:normal;font-size:11.61029243px;line-height:1.25;font-family:sans-serif;letter-spacing:0px;word-spacing:0px;fill:#000000;fill-opacity:1;stroke:none;stroke-width:0.29025733"
       x="16.943241"
       y="82.634972"
       id="text833-2"
       inkscape:export-filename="E:\Segundo Curso\MovilesJuegos\Proyecto1erTrimestre\app\src\main\res\drawable\Logo.png"
       inkscape:export-xdpi="96"
       inkscape:export-ydpi="96"><tspan
         sodipodi:role="line"
         id="tspan831-1"
         x="16.943241"
         y="82.634972"
         style="font-style:normal;font-variant:normal;font-weight:normal;font-stretch:normal;font-size:11.61029243px;font-family:Galdeano;-inkscape-font-specification:'Galdeano, Normal';font-variant-ligatures:normal;font-variant-caps:normal;font-variant-numeric:normal;font-feature-settings:normal;text-align:start;writing-mode:lr-tb;text-anchor:start;fill:#000000;fill-opacity:1;stroke-width:0.29025733">Frutería Store</tspan></text>
    <rect
       style="fill:none;fill-opacity:1;stroke:#ffffff;stroke-width:0.75218695;stroke-miterlimit:4;stroke-dasharray:none;stroke-opacity:1"
       id="rect839-2"
       width="30.935152"
       height="30.935152"
       x="-6.038197"
       y="43.139805"
       transform="rotate(-45.000005)"
       inkscape:export-filename="E:\Segundo Curso\MovilesJuegos\Proyecto1erTrimestre\app\src\main\res\drawable\Logo.png"
       inkscape:export-xdpi="96"
       inkscape:export-ydpi="96" />
    <text
       xml:space="preserve"
       style="font-style:normal;font-weight:normal;font-size:21.85962868px;line-height:1.25;font-family:sans-serif;letter-spacing:0px;word-spacing:0px;fill:#ffffff;fill-opacity:1;stroke:none;stroke-width:0.54649073"
       x="20.280228"
       y="60.175598"
       id="text4522-2"
       transform="rotate(-25.027813)"
       inkscape:export-filename="E:\Segundo Curso\MovilesJuegos\Proyecto1erTrimestre\app\src\main\res\drawable\Logo.png"
       inkscape:export-xdpi="96"
       inkscape:export-ydpi="96"><tspan
         sodipodi:role="line"
         id="tspan4520-2"
         x="20.280228"
         y="60.175598"
         style="font-style:normal;font-variant:normal;font-weight:normal;font-stretch:normal;font-size:21.85962868px;font-family:'Lily Script One';-inkscape-font-specification:'Lily Script One, Normal';font-variant-ligatures:normal;font-variant-caps:normal;font-variant-numeric:normal;font-feature-settings:normal;text-align:start;writing-mode:lr-tb;text-anchor:start;fill:#ffffff;fill-opacity:1;stroke-width:0.54649073">D</tspan></text>
  </g>
</svg>
